<svg width="139" height="517" viewBox="0 0 139 517" fill="none" xmlns="http://www.w3.org/2000/svg">
<path d="M110.367 11C88.1768 26.1172 71 34.6943 71 64.3333C71 80.6835 81.3195 91.2852 90.1367 103.148C105.031 123.188 132.169 139.555 134.835 167C136.922 188.498 140.441 203.279 128.683 221.815C115.729 242.237 99.0493 252.492 92.5971 277.667C88.4094 294.006 80.6659 310.989 88.223 328.333C99.3203 353.803 135.169 383.028 123.626 415C114.023 441.598 76.1131 464.542 100.525 491" stroke="#9E165F" stroke-width="3" stroke-linecap="round"/>
<path d="M136.748 40C136.085 75.7824 106.374 71.4364 90.9306 91.7487C77.6112 109.268 71.7569 136.739 71.7569 160.856C71.7569 186.212 93.3874 207.458 106.743 221.121C120.995 235.701 136.748 256.417 136.748 283.023C136.748 292.807 138.598 303.335 132.266 309.879C122.054 320.434 109.964 339.234 101.389 352.458C89.901 370.173 62.6835 382.117 65.1581 411.412C66.5832 428.282 78.599 435.141 88.565 442.199C95.1993 446.898 102.905 451.952 109.855 456.282C114.365 459.092 125.543 464.744 125.543 471.84C125.543 476.49 127.984 486.972 130.025 491" stroke="#851651" stroke-width="3" stroke-linecap="round"/>
<path d="M4.52344 18.7734H9.91406V20H3.01562V8.625H4.52344V18.7734ZM2.14844 45.6953C2.14844 44.8672 2.3099 44.1224 2.63281 43.4609C2.96094 42.7995 3.41406 42.2891 3.99219 41.9297C4.57552 41.5703 5.23958 41.3906 5.98438 41.3906C7.13542 41.3906 8.0651 41.7891 8.77344 42.5859C9.48698 43.3828 9.84375 44.4427 9.84375 45.7656V45.8672C9.84375 46.6901 9.6849 47.4297 9.36719 48.0859C9.05469 48.737 8.60417 49.2448 8.01562 49.6094C7.43229 49.974 6.76042 50.1562 6 50.1562C4.85417 50.1562 3.92448 49.7578 3.21094 48.9609C2.5026 48.1641 2.14844 47.1094 2.14844 45.7969V45.6953ZM3.60156 45.8672C3.60156 46.8047 3.81771 47.5573 4.25 48.125C4.6875 48.6927 5.27083 48.9766 6 48.9766C6.73438 48.9766 7.31771 48.6901 7.75 48.1172C8.18229 47.5391 8.39844 46.7318 8.39844 45.6953C8.39844 44.7682 8.17708 44.0182 7.73438 43.4453C7.29688 42.8672 6.71354 42.5781 5.98438 42.5781C5.27083 42.5781 4.69531 42.862 4.25781 43.4297C3.82031 43.9974 3.60156 44.8099 3.60156 45.8672ZM8.54688 72.8438C8.32812 72.8073 8.09115 72.7891 7.83594 72.7891C6.88802 72.7891 6.24479 73.1927 5.90625 74V80H4.46094V71.5469H5.86719L5.89062 72.5234C6.36458 71.7682 7.03646 71.3906 7.90625 71.3906C8.1875 71.3906 8.40104 71.4271 8.54688 71.5V72.8438ZM6.35938 110.156C5.21354 110.156 4.28125 109.781 3.5625 109.031C2.84375 108.276 2.48438 107.268 2.48438 106.008V105.742C2.48438 104.904 2.64323 104.156 2.96094 103.5C3.28385 102.839 3.73177 102.323 4.30469 101.953C4.88281 101.578 5.50781 101.391 6.17969 101.391C7.27865 101.391 8.13281 101.753 8.74219 102.477C9.35156 103.201 9.65625 104.237 9.65625 105.586V106.188H3.92969C3.95052 107.021 4.19271 107.695 4.65625 108.211C5.125 108.721 5.71875 108.977 6.4375 108.977C6.94792 108.977 7.38021 108.872 7.73438 108.664C8.08854 108.456 8.39844 108.18 8.66406 107.836L9.54688 108.523C8.83854 109.612 7.77604 110.156 6.35938 110.156ZM6.17969 102.578C5.59635 102.578 5.10677 102.792 4.71094 103.219C4.3151 103.641 4.07031 104.234 3.97656 105H8.21094V104.891C8.16927 104.156 7.97135 103.589 7.61719 103.188C7.26302 102.781 6.78385 102.578 6.17969 102.578ZM1.4375 131.547L1.47656 132.484C2.09635 131.755 2.93229 131.391 3.98438 131.391C5.16667 131.391 5.97135 131.844 6.39844 132.75C6.67969 132.344 7.04427 132.016 7.49219 131.766C7.94531 131.516 8.47917 131.391 9.09375 131.391C10.9479 131.391 11.8906 132.372 11.9219 134.336V140H10.4766V134.422C10.4766 133.818 10.3385 133.367 10.0625 133.07C9.78646 132.768 9.32292 132.617 8.67188 132.617C8.13542 132.617 7.6901 132.779 7.33594 133.102C6.98177 133.419 6.77604 133.849 6.71875 134.391V140H5.26562V134.461C5.26562 133.232 4.66406 132.617 3.46094 132.617C2.51302 132.617 1.86458 133.021 1.51562 133.828V140H0.0703125V131.547H1.4375ZM6.71875 200H5.27344V191.547H6.71875V200ZM5.15625 189.305C5.15625 189.07 5.22656 188.872 5.36719 188.711C5.51302 188.549 5.72656 188.469 6.00781 188.469C6.28906 188.469 6.5026 188.549 6.64844 188.711C6.79427 188.872 6.86719 189.07 6.86719 189.305C6.86719 189.539 6.79427 189.734 6.64844 189.891C6.5026 190.047 6.28906 190.125 6.00781 190.125C5.72656 190.125 5.51302 190.047 5.36719 189.891C5.22656 189.734 5.15625 189.539 5.15625 189.305ZM9.74219 225.867C9.74219 227.154 9.44792 228.19 8.85938 228.977C8.27083 229.763 7.47396 230.156 6.46875 230.156C5.44271 230.156 4.63542 229.831 4.04688 229.18V233.25H2.60156V221.547H3.92188L3.99219 222.484C4.58073 221.755 5.39844 221.391 6.44531 221.391C7.46094 221.391 8.26302 221.773 8.85156 222.539C9.44531 223.305 9.74219 224.37 9.74219 225.734V225.867ZM8.29688 225.703C8.29688 224.75 8.09375 223.997 7.6875 223.445C7.28125 222.893 6.72396 222.617 6.01562 222.617C5.14062 222.617 4.48438 223.005 4.04688 223.781V227.82C4.47917 228.591 5.14062 228.977 6.03125 228.977C6.72396 228.977 7.27344 228.703 7.67969 228.156C8.09115 227.604 8.29688 226.786 8.29688 225.703ZM7.89062 257.758C7.89062 257.367 7.74219 257.065 7.44531 256.852C7.15365 256.633 6.64062 256.445 5.90625 256.289C5.17708 256.133 4.59635 255.945 4.16406 255.727C3.73698 255.508 3.41927 255.247 3.21094 254.945C3.00781 254.643 2.90625 254.284 2.90625 253.867C2.90625 253.174 3.19792 252.589 3.78125 252.109C4.36979 251.63 5.11979 251.391 6.03125 251.391C6.98958 251.391 7.76562 251.638 8.35938 252.133C8.95833 252.628 9.25781 253.26 9.25781 254.031H7.80469C7.80469 253.635 7.63542 253.294 7.29688 253.008C6.96354 252.721 6.54167 252.578 6.03125 252.578C5.50521 252.578 5.09375 252.693 4.79688 252.922C4.5 253.151 4.35156 253.451 4.35156 253.82C4.35156 254.169 4.48958 254.432 4.76562 254.609C5.04167 254.786 5.53906 254.956 6.25781 255.117C6.98177 255.279 7.56771 255.471 8.01562 255.695C8.46354 255.919 8.79427 256.19 9.00781 256.508C9.22656 256.82 9.33594 257.203 9.33594 257.656C9.33594 258.411 9.03385 259.018 8.42969 259.477C7.82552 259.93 7.04167 260.156 6.07812 260.156C5.40104 260.156 4.80208 260.036 4.28125 259.797C3.76042 259.557 3.35156 259.224 3.05469 258.797C2.76302 258.365 2.61719 257.898 2.61719 257.398H4.0625C4.08854 257.883 4.28125 258.268 4.64062 258.555C5.00521 258.836 5.48438 258.977 6.07812 258.977C6.625 258.977 7.0625 258.867 7.39062 258.648C7.72396 258.424 7.89062 258.128 7.89062 257.758ZM7.89844 289.164C7.33594 289.826 6.51042 290.156 5.42188 290.156C4.52083 290.156 3.83333 289.896 3.35938 289.375C2.89062 288.849 2.65365 288.073 2.64844 287.047V281.547H4.09375V287.008C4.09375 288.289 4.61458 288.93 5.65625 288.93C6.76042 288.93 7.49479 288.518 7.85938 287.695V281.547H9.30469V290H7.92969L7.89844 289.164ZM1.4375 311.547L1.47656 312.484C2.09635 311.755 2.93229 311.391 3.98438 311.391C5.16667 311.391 5.97135 311.844 6.39844 312.75C6.67969 312.344 7.04427 312.016 7.49219 311.766C7.94531 311.516 8.47917 311.391 9.09375 311.391C10.9479 311.391 11.8906 312.372 11.9219 314.336V320H10.4766V314.422C10.4766 313.818 10.3385 313.367 10.0625 313.07C9.78646 312.768 9.32292 312.617 8.67188 312.617C8.13542 312.617 7.6901 312.779 7.33594 313.102C6.98177 313.419 6.77604 313.849 6.71875 314.391V320H5.26562V314.461C5.26562 313.232 4.66406 312.617 3.46094 312.617C2.51302 312.617 1.86458 313.021 1.51562 313.828V320H0.0703125V311.547H1.4375ZM2.22656 375.703C2.22656 374.406 2.53385 373.365 3.14844 372.578C3.76302 371.786 4.56771 371.391 5.5625 371.391C6.55208 371.391 7.33594 371.729 7.91406 372.406V368H9.35938V380H8.03125L7.96094 379.094C7.38281 379.802 6.57812 380.156 5.54688 380.156C4.56771 380.156 3.76823 379.755 3.14844 378.953C2.53385 378.151 2.22656 377.104 2.22656 375.812V375.703ZM3.67188 375.867C3.67188 376.826 3.86979 377.576 4.26562 378.117C4.66146 378.659 5.20833 378.93 5.90625 378.93C6.82292 378.93 7.49219 378.518 7.91406 377.695V373.812C7.48177 373.016 6.81771 372.617 5.92188 372.617C5.21354 372.617 4.66146 372.891 4.26562 373.438C3.86979 373.984 3.67188 374.794 3.67188 375.867ZM2.14844 405.695C2.14844 404.867 2.3099 404.122 2.63281 403.461C2.96094 402.799 3.41406 402.289 3.99219 401.93C4.57552 401.57 5.23958 401.391 5.98438 401.391C7.13542 401.391 8.0651 401.789 8.77344 402.586C9.48698 403.383 9.84375 404.443 9.84375 405.766V405.867C9.84375 406.69 9.6849 407.43 9.36719 408.086C9.05469 408.737 8.60417 409.245 8.01562 409.609C7.43229 409.974 6.76042 410.156 6 410.156C4.85417 410.156 3.92448 409.758 3.21094 408.961C2.5026 408.164 2.14844 407.109 2.14844 405.797V405.695ZM3.60156 405.867C3.60156 406.805 3.81771 407.557 4.25 408.125C4.6875 408.693 5.27083 408.977 6 408.977C6.73438 408.977 7.31771 408.69 7.75 408.117C8.18229 407.539 8.39844 406.732 8.39844 405.695C8.39844 404.768 8.17708 404.018 7.73438 403.445C7.29688 402.867 6.71354 402.578 5.98438 402.578C5.27083 402.578 4.69531 402.862 4.25781 403.43C3.82031 403.997 3.60156 404.81 3.60156 405.867ZM6.71875 440H5.27344V428H6.71875V440ZM2.14844 465.695C2.14844 464.867 2.3099 464.122 2.63281 463.461C2.96094 462.799 3.41406 462.289 3.99219 461.93C4.57552 461.57 5.23958 461.391 5.98438 461.391C7.13542 461.391 8.0651 461.789 8.77344 462.586C9.48698 463.383 9.84375 464.443 9.84375 465.766V465.867C9.84375 466.69 9.6849 467.43 9.36719 468.086C9.05469 468.737 8.60417 469.245 8.01562 469.609C7.43229 469.974 6.76042 470.156 6 470.156C4.85417 470.156 3.92448 469.758 3.21094 468.961C2.5026 468.164 2.14844 467.109 2.14844 465.797V465.695ZM3.60156 465.867C3.60156 466.805 3.81771 467.557 4.25 468.125C4.6875 468.693 5.27083 468.977 6 468.977C6.73438 468.977 7.31771 468.69 7.75 468.117C8.18229 467.539 8.39844 466.732 8.39844 465.695C8.39844 464.768 8.17708 464.018 7.73438 463.445C7.29688 462.867 6.71354 462.578 5.98438 462.578C5.27083 462.578 4.69531 462.862 4.25781 463.43C3.82031 463.997 3.60156 464.81 3.60156 465.867ZM8.46875 492.844C8.25 492.807 8.01302 492.789 7.75781 492.789C6.8099 492.789 6.16667 493.193 5.82812 494V500H4.38281V491.547H5.78906L5.8125 492.523C6.28646 491.768 6.95833 491.391 7.82812 491.391C8.10938 491.391 8.32292 491.427 8.46875 491.5V492.844Z" fill="#344054"/>
</svg>
